<svg width="262" height="40" fill="none" xmlns="http://www.w3.org/2000/svg" viewBox="0 0 262 40"><path d="M65.35 33.755c0-2.148.785-4.172 3.791-4.172.675 0 1.386.135 1.853.27l-.209 1.128a4.565 4.565 0 0 0-1.607-.294c-1.792 0-2.503 1.252-2.503 3.08 0 1.73.81 2.81 2.527 2.81.54 0 1.289-.135 1.706-.283l.135 1.142c-.43.147-1.19.27-1.89.27-2.969.024-3.803-1.841-3.803-3.952ZM77.24 37.497l-1.032.184c-.208-.258-.319-.614-.38-.97-.344.65-1.055.995-1.791.995-.908 0-1.914-.467-1.914-1.841 0-1.423.76-1.853 3.558-1.976v-.392c0-.601-.11-.994-1.068-.994-.6 0-1.19.172-1.766.466l-.27-1.018c.54-.258 1.374-.466 2.171-.466 1.559 0 2.074.65 2.074 2.012v2.307c.012.736.147 1.374.417 1.693Zm-3.976-1.657c0 .724.6.872 1.006.872.724 0 1.288-.516 1.41-1.092v-.822c-1.852.098-2.416.257-2.416 1.042ZM81.153 36.675v.932l-.564.025c-1.006.049-1.656-.32-1.656-1.411v-3.534H78v-.957h.933v-1.35l1.202-.306v1.644h1.24v.957h-1.24v3.08c0 .699.147.908.675.908h.343v.012ZM85.68 31.546c1.522 0 1.927.957 1.927 2.012v4.013h-1.215v-3.706c0-.76-.257-1.313-1.08-1.313-.576 0-1.153.27-1.46.65v4.369h-1.239v-8.099l1.24-.184v2.97c.392-.38 1.092-.712 1.828-.712ZM94.11 37.497l-1.03.184c-.21-.258-.332-.614-.38-.97-.344.65-1.056.995-1.792.995-.908 0-1.914-.467-1.914-1.841 0-1.423.76-1.853 3.558-1.976v-.392c0-.601-.11-.994-1.055-.994-.602 0-1.19.172-1.767.466l-.27-1.018c.54-.258 1.374-.466 2.172-.466 1.558 0 2.073.65 2.073 2.012v2.307c0 .736.135 1.374.405 1.693Zm-3.975-1.657c0 .724.601.872 1.006.872.724 0 1.288-.516 1.41-1.092v-.822c-1.852.098-2.416.257-2.416 1.042ZM98.859 31.656h1.349c-.49 1.485-1.423 4.209-2.024 5.706-.503 1.264-.994 2.147-1.436 2.638l-1.19-.528c.454-.43.994-1.239 1.448-2.306l-2.307-5.522h1.362l1.546 4.209c.43-1.227.945-3.006 1.252-4.197ZM107.215 37.755c-1.743 0-3.092-.92-3.092-2.712v-5.288h1.264v4.859c0 1.165.405 2.06 1.852 2.06 1.436 0 1.853-.883 1.853-2.06v-4.86h1.252v5.289c.012 1.791-1.313 2.712-3.129 2.712ZM113.227 31.57c.086.209.172.565.196.773.393-.429 1.141-.797 1.89-.797 1.534 0 1.939.957 1.939 2.012v4.012h-1.227v-3.705c0-.76-.258-1.313-1.08-1.313-.565 0-1.154.27-1.473.626v4.392h-1.227v-4.638c0-.417-.036-.858-.147-1.227l1.129-.135ZM120.294 30.773h-1.276v-1.117h1.276v1.117Zm-.024 6.81h-1.239v-5.927h1.239v5.927ZM124.626 36.675v.932l-.565.025c-1.006.049-1.656-.32-1.656-1.411v-3.534h-.933v-.957h.933v-1.35l1.202-.306v1.644h1.24v.957h-1.24v3.08c0 .699.16.908.675.908h.344v.012ZM128.81 36.712c.601 0 1.251-.135 1.717-.332l.221.982c-.38.184-1.153.393-2.049.393-2.135 0-2.994-1.313-2.994-3.056 0-1.828.97-3.239 2.822-3.239 1.645 0 2.295 1.117 2.295 2.675v.712h-3.89c0 1.263.712 1.865 1.878 1.865Zm-.393-4.307c-.871 0-1.374.773-1.436 1.558h2.749c-.025-.957-.356-1.558-1.313-1.558ZM134.429 37.73c-1.534 0-2.319-1.116-2.319-2.982 0-1.742.638-3.239 2.503-3.239.65 0 1.289.282 1.644.65v-2.662l1.191-.184v6.245c0 .749.036 1.374.245 1.89l-1.055.208c-.16-.245-.233-.588-.27-.87-.295.392-.884.944-1.939.944Zm1.853-3.583c0-.331-.012-.65-.061-.92a1.758 1.758 0 0 0-1.399-.7c-1.105 0-1.473.92-1.473 2.197 0 1.117.368 1.975 1.338 1.975.834 0 1.349-.564 1.534-.969.036-.196.061-.515.061-.81v-.773ZM147.386 35.374c0 1.62-1.166 2.197-2.748 2.197h-2.418v-7.829h2.258c1.313 0 2.601.356 2.601 1.927 0 .92-.49 1.484-1.202 1.73.662.11 1.509.576 1.509 1.975Zm-1.497-3.497c0-.797-.552-1.116-1.558-1.116h-.884v2.27h1.399c.589-.074 1.043-.405 1.043-1.154Zm-2.442 4.65h1.092c.847 0 1.596-.184 1.596-1.288 0-.859-.565-1.264-1.608-1.264h-1.067v2.553h-.013ZM153.791 37.497l-1.03.184c-.209-.258-.319-.614-.381-.97-.343.65-1.055.995-1.791.995-.908 0-1.914-.467-1.914-1.841 0-1.423.761-1.853 3.558-1.976v-.392c0-.601-.11-.994-1.067-.994-.602 0-1.191.172-1.767.466l-.27-1.018c.54-.258 1.374-.466 2.172-.466 1.558 0 2.073.65 2.073 2.012v2.307c.012.736.147 1.374.417 1.693Zm-3.975-1.657c0 .724.601.872 1.006.872.724 0 1.288-.516 1.411-1.092v-.822c-1.853.098-2.417.257-2.417 1.042ZM156.209 31.57c.085.209.171.565.196.773.393-.429 1.141-.797 1.889-.797 1.534 0 1.939.957 1.939 2.012v4.012h-1.227v-3.705c0-.76-.258-1.313-1.08-1.313-.564 0-1.153.27-1.472.626v4.392h-1.215v-4.638c0-.417-.049-.858-.147-1.227l1.117-.135ZM167.018 37.583h-1.485l-2.282-2.908v2.908h-1.239v-8.098l1.239-.184v5.251l2.233-2.896h1.423l-2.392 2.872 2.503 3.055ZM214.393 36.123h.54c.012 0 .024-.013.024-.013l-.086-1.497a.11.11 0 0 0-.11-.11h-.589c-.037 0-.062.025-.062.061l.221 1.497c0 .025.025.062.062.062Zm2.785-1.632h-.589a.11.11 0 0 0-.11.11l-.086 1.497c0 .012.012.012.012.012h.54c.037 0 .061-.024.061-.061l.221-1.497c.012-.024-.012-.061-.049-.061Zm-.822-4.528h-1.362c-.135-.012-.221.074-.258.197-.012.036-.024.073-.049.122a4.569 4.569 0 0 1-.981 1.583v.43c0 .048.036.085.085.085h.025c.012 0 .025-.012.037-.012.883-.515 1.448-1.117 1.816-1.816.331.638.834 1.178 1.583 1.669.012.012.024.012.036.024h.037a.092.092 0 0 0 .086-.061v-.515c-.27-.283-.528-.822-.736-1.375-.074-.16-.098-.343-.319-.33Zm.981 6.32c-.404.11-.834.22-1.251.294v-2.503h1.153c.049 0 .098-.05.098-.11v-.344c0-.062-.049-.11-.098-.11h-1.153v-.762h.883a.11.11 0 0 0 .111-.11v-.344c0-.06-.049-.098-.111-.098h-2.564c-.061 0-.11.05-.11.098v.344c0 .061.049.11.11.11h.883v.761h-1.153c-.049 0-.098.05-.098.11v.344c0 .062.049.11.098.11h1.153v2.65a14.7 14.7 0 0 1-1.447.148h-.013c-.061 0-.098.05-.098.11v.528c0 .062.049.11.098.11h.013c.773-.036 2.441-.343 3.472-.81 0 0 .061-.024.061-.097v-.418c-.012-.012-.024-.024-.037-.012Zm4.81 1.226v-.626c-.392-.257-.773-.625-1.116-1.043.257-.503.429-1.043.564-1.57.025-.172-.11-.147-.11-.147h-.614a5.852 5.852 0 0 1-.257 1.104 4.04 4.04 0 0 1-.54-1.46h1.472a.11.11 0 0 0 .11-.11v-3.314c0-.27-.233-.404-.429-.404h-3.35a.11.11 0 0 0-.11.11v7.436c0 .06.049.11.11.11.479-.024 1.362-.209 2.098-.478h.013c.037-.013.061-.05.061-.099v-.478s0-.025-.037-.012c-.515.11-1.018.184-1.448.233v-2.994h.553c.466 1.693 1.533 3.08 2.895 3.828.013 0 .025.012.037.012.049.013.098-.036.098-.098Zm-3.583-6.908h2.27v.945h-2.27v-.945Zm0 2.54v-.945h2.27v.945h-2.27ZM201.582 32.098h-1.128v-1.583a.464.464 0 0 0-.454-.466h-.491a.105.105 0 0 0-.098.098V32.098h-1.706V30.16a.11.11 0 0 0-.11-.11h-.479a.466.466 0 0 0-.466.465v1.595h-1.485v-1.742c0-.061-.049-.11-.098-.11h-.478a.466.466 0 0 0-.467.466v1.386h-.773a.084.084 0 0 0-.086.086v.454c0 .05.037.086.086.086h.773v4.43c0 .257.209.466.454.466h6.638c.062 0 .111-.05.111-.098v-.417a.11.11 0 0 0-.111-.11h-6.049v-4.258h1.485v2.343c0 .258.209.466.466.466H200a.464.464 0 0 0 .466-.454v-2.343h1.129a.084.084 0 0 0 .086-.086v-.454c-.013-.086-.049-.123-.099-.123Zm-3.901 2.785v-2.16h1.705v2.16h-1.705ZM226.797 31.804h-.871c-.295.38-.883 1.214-1.926 1.57 0 0-.037.025-.037.037v.43s-.025.196.159.122c.307-.098.565-.209.81-.331v3.521c0 .258.209.467.454.467h.479a.11.11 0 0 0 .11-.11v-4.553c.442-.38.699-.76.883-1.03.062-.136-.061-.123-.061-.123Zm0-1.84h-.871c-.295.38-.883 1.214-1.926 1.57-.013 0-.037.024-.037.037V32s-.025.184.159.123c1.767-.59 2.368-1.497 2.736-2.05.074-.122-.061-.11-.061-.11Zm.933.907h4.159a.084.084 0 0 0 .086-.086v-.454a.084.084 0 0 0-.086-.086h-4.159a.084.084 0 0 0-.086.086v.454c0 .05.037.086.086.086Zm4.527 1.485h-5.03a.083.083 0 0 0-.086.086v.466c0 .037.036.086.086.086h2.883v3.718c0 .22-.061.343-.442.343h-.38c-.025 0-.037.025-.037.025v.441c0 .05.037.086.086.086h.798c.76-.024 1.018-.172 1.018-.908v-3.718h1.092a.084.084 0 0 0 .086-.085v-.467c.012-.036-.025-.073-.074-.073ZM180.662 30.11h-7.349a.46.46 0 0 0-.454.454v6.59a.46.46 0 0 0 .454.453h7.349a.453.453 0 0 0 .454-.454v-6.589a.453.453 0 0 0-.454-.454Zm-2.429.565h.638c.037.171.074.43.123.748h-.749c-.012-.356-.012-.613-.012-.748Zm-4.331 0h3.533c0 .147.013.405.049.748h-3.582v-.748Zm6.196 6.38h-6.196v-5.08h3.644c.11.822.331 1.89.773 2.896-.381.54-.822 1.03-1.338 1.386-.049.025-.012.074-.012.074l.172.32s.024.06.073.024c.54-.307 1.007-.737 1.412-1.215.269.478.601.932 1.006 1.3.036.05.086.013.086.013l.245-.295s.037-.024 0-.061a6.314 6.314 0 0 1-.92-1.497c.282-.417.527-.847.736-1.276.037-.074-.025-.098-.025-.098l-.527-.209s-.062-.024-.086.037c-.111.27-.246.54-.393.798-.257-.798-.38-1.571-.454-2.197h1.338s.184 0 .184-.233c-.074-.417-.16-.834-.197-1.067h.491v6.38h-.012Zm-2.822-1.57v-.393c0-.074-.062-.05-.062-.05-1.03.295-2.269.406-2.846.418a.084.084 0 0 0-.086.086v.626c0 .049.037.086.086.086.638-.025 2-.32 2.846-.688.013-.012.062-.024.062-.086Zm-2.54-.835h2.086a.461.461 0 0 0 .454-.454v-1.288a.453.453 0 0 0-.454-.454h-2.086a.453.453 0 0 0-.454.454v1.288c0 .258.209.454.454.454Zm.552-1.718h.994v1.252h-.994v-1.252ZM187.337 34.16h-.466a.097.097 0 0 0-.098.098v2.453c0 .221-.049.344-.417.344h-.209c-.037 0-.037.037-.037.037v.392c0 .074.061.123.123.123h.392c.884 0 1.166-.123 1.166-.883v-2.11a.453.453 0 0 0-.454-.455Zm4.012.613c-.515-.245-1.104-.614-1.533-1.03h1.533a.084.084 0 0 0 .086-.087v-.454a.084.084 0 0 0-.086-.086h-5.227c.184-.233.356-.478.516-.711h3.73a.084.084 0 0 0 .086-.086v-.454a.084.084 0 0 0-.086-.086h-3.35c.147-.258.27-.49.368-.712h3.669a.084.084 0 0 0 .086-.086v-.454a.084.084 0 0 0-.086-.085h-3.399c.037-.086.061-.172.086-.221.025-.086.025-.148-.061-.172a8.523 8.523 0 0 1-.724-.16c-.16-.036-.184.123-.184.123l-.062.209a2.335 2.335 0 0 0-.073.22h-3.031a.084.084 0 0 0-.086.087v.453c0 .05.037.086.086.086h2.773c-.098.221-.221.467-.344.712h-1.754a.084.084 0 0 0-.086.086v.454c0 .049.037.086.086.086h1.386c-.147.245-.319.478-.49.711h-1.902a.084.084 0 0 0-.086.086v.454c0 .05.037.086.086.086h1.374c-.405.43-.871.786-1.374 1.03-.135.05-.074.16-.074.16l.098.246s.037.098.16.049c.319-.11.626-.27.908-.454.662.172 1.472.527 1.668.613.062.025.086-.024.086-.024l.234-.516s.049-.06-.025-.098c-.282-.122-.908-.306-1.399-.405.233-.196.454-.405.663-.613h3.276c.196.209.417.405.662.589-.392.184-1.018.319-1.374.368-.049 0-.061.037-.049.086.061.208.098.356.16.564.024.062.049.062.098.062.233-.037 1.239-.418 1.681-.712.356.22.748.417 1.129.552.122.05.147-.061.147-.061l.098-.246c-.012 0 .061-.11-.074-.16Zm-4.908 1.386c-.024-.184-.036-.16-.073-.343 0-.025-.037-.062-.086-.05-.834.43-1.669.651-2.565.896-.049.025-.073.062-.049.11.074.16.197.43.258.553.012.037.074.074.135.05.736-.246 1.656-.725 2.331-1.105.049-.025.049-.062.049-.11Zm4.319.553a12.546 12.546 0 0 0-2.417-.847c-.073-.025-.086.037-.086.037l-.147.331s-.037.074.037.098c.761.331 1.423.59 2.123 1.018.073.037.159.025.208-.036.135-.197.184-.282.319-.479.012-.049 0-.098-.037-.123ZM211.816 30.454h-1.889a.464.464 0 0 0-.454-.417h-.418a.11.11 0 0 0-.11.11v.307h-2.515v-.307c0-.061-.049-.11-.098-.11h-.418a.464.464 0 0 0-.454.417h-1.889a.084.084 0 0 0-.086.086v.43c0 .048.037.085.086.085h1.889v.344c0 .061.049.11.111.11h.773c.061 0 .098-.049.098-.11v-.344h2.515v.344c0 .061.049.11.111.11h.773a.11.11 0 0 0 .11-.11v-.344h1.89a.084.084 0 0 0 .086-.086v-.43c-.025-.048-.062-.085-.111-.085Zm0 2.773h-1.374v-.785h.761a.084.084 0 0 0 .086-.086v-.43a.084.084 0 0 0-.086-.086h-7.019a.084.084 0 0 0-.086.086v.43c0 .049.037.086.086.086h.749v.785h-1.374a.083.083 0 0 0-.086.086v.43c0 .048.036.085.086.085h1.374v.785h-.749a.084.084 0 0 0-.086.086v.43c0 .049.037.086.086.086h3.019V36h-3.632a.084.084 0 0 0-.086.086v.43c0 .048.037.085.086.085h3.632v.552c0 .258.208.467.454.467h.417a.11.11 0 0 0 .11-.11V36.6h3.632a.084.084 0 0 0 .086-.086v-.43a.084.084 0 0 0-.086-.085h-3.632v-.785h3.019a.084.084 0 0 0 .086-.086v-.43a.084.084 0 0 0-.086-.086h-.761v-.785h1.374a.084.084 0 0 0 .086-.086v-.43a.084.084 0 0 0-.086-.085Zm-4.613 1.386h-1.276v-.785h1.276v.785Zm0-1.386h-1.276v-.785h1.276v.785Zm2.257 1.386h-1.276v-.785h1.276v.785Zm0-1.386h-1.276v-.785h1.276v.785ZM73.399 15.006c-1.007 0-1.51-.454-1.51-1.35 0-1.202.675-1.803 2.013-1.803 1.006 0 1.509.306 1.509.896v7.202c0 .601-.331.896-1.006.896s-1.215-.184-1.632-.565l-1.89-1.68-1.877 1.68c-.417.38-.97.565-1.644.565-.675 0-1.006-.295-1.006-.896v-8.184c-.479-.393-.761-.675-.86-.822-.097-.147-.146-.344-.146-.577 0-.22.049-.417.147-.564.098-.16.356-.417.785-.798l.626-.552c.834-.736 1.362-1.104 1.57-1.104.234 0 .7.331 1.4 1.006l.514.503c.172.172.356.258.553.258.16 0 .331-.086.49-.258l.479-.503c.65-.675 1.092-1.006 1.325-1.006.233 0 .528.184.884.552l1.14 1.129c.393.368.786.43 1.179.171-.454 1.007-.884 1.51-1.301 1.51-.442 0-.773-.123-1.006-.356l-.76-.724c-.258-.245-.492-.368-.7-.368-.27 0-.602.233-.982.724-.38.49-.724.736-1.043.736-.466 0-.97-.245-1.521-.736l-.417-.356c-.283-.245-.54-.356-.786-.356-.147 0-.356.123-.638.38-.282.27-.417.503-.417.7 0 .209.503.589 1.522 1.141v8.098l1.816-1.607c.466-.417.944-.417 1.423 0l1.803 1.607v-4.589H73.4Zm0-2.172c-.332.123-.503.393-.503.822 0 .307.171.454.503.454v-1.276ZM89.51 10.196v2.11c0 .602-.627.896-1.89.896-.994 0-1.497-.454-1.497-1.35 0-.367.122-.65.368-.846.245-.184.576-.282.993-.282v-.663c0-1.202-.834-1.803-2.515-1.803-1.68 0-2.515.6-2.515 1.803v1.35c0 1.018.748 1.828 2.258 2.417l4.797 1.927v2.858c0 1.497-.92 2.258-2.773 2.258-.748 0-1.485-.454-2.209-1.35-.736-.908-1.423-1.35-2.06-1.35v1.804c0 .602-.332.896-1.007.896-.675 0-1.006-.294-1.006-.896V14.81l2.012.81v1.644c.835 0 1.669.38 2.466 1.129.798.748 1.4 1.128 1.816 1.128.503 0 .761-.306.761-.908v-2.687l-4.184-1.668c-1.914-.761-2.871-1.718-2.871-2.86v-1.337c0-1.803 1.51-2.7 4.528-2.7 2.368 0 3.803.553 4.319 1.657 1.251-1.104 2.282-1.656 3.08-1.656.674 0 1.275.16 1.815.478l.871.54c.994.614 1.485 1.485 1.485 2.59v9.913H94.54v-9.926c0-.479-.258-.859-.761-1.166l-.871-.54c-.32-.196-.736-.294-1.24-.294-.417-.012-1.14.405-2.159 1.24Zm-2.369 1.657c0 .306.123.454.368.454v-.675c-.258 0-.368.074-.368.22ZM104.933 7.35c.417 0 1.202.356 2.355 1.055l.847.515c.282.16.589.233.908.233.38 0 1.006-.355 1.89-1.092.576-.478 1.079-.711 1.497-.711.417 0 .969.196 1.619.601l1.792 1.092c1.239.736 1.865 1.681 1.865 2.81v9.006h-2.013v-9.006c0-.491-.331-.933-.981-1.338l-1.608-.969c-.429-.27-.846-.393-1.239-.393-.368 0-.92.258-1.656.761-.736.516-1.375.76-1.914.76-.565 0-1.129-.17-1.694-.514l-.674-.405c-.675-.405-1.154-.614-1.436-.614-.552 0-1.043.135-1.472.405-.442.27-.663.503-.663.724 0 .27.479.638 1.448 1.129l-1.497.687c-1.153-.417-1.718-.92-1.718-1.497v-.27c0-.393.307-.785.92-1.178l1.853-1.19c.626-.405 1.141-.601 1.571-.601Zm-1.325 10.638.331-.479c.527-.773 1.129-1.153 1.803-1.153.921 0 1.387.356 1.387 1.08 0 .478-.258.724-.773.724-.38 0-.577-.099-.577-.295 0-.196-.086-.294-.245-.294-.16 0-.405.245-.749.748l-.49.736-.7 1.019v.785h-2V14.11c0-1.803 1.509-2.699 4.528-2.699 3.018 0 4.527.896 4.527 2.7v6.748h-2.012V14.11c0-1.202-.834-1.803-2.515-1.803s-2.515.601-2.515 1.803v3.878ZM124.761 19.963c0 .601-.503.896-1.51.896-.834 0-1.435-.295-1.791-.896-.356-.601-.528-1.202-.528-1.803 0-1.203.602-1.804 1.816-1.804v-4.43c0-.638-.674-1.055-2.012-1.239.135-.601.491-1.313 1.068-2.123.576-.797 1.043-1.202 1.398-1.202.295 0 .687.135 1.154.393l.699.392c.319.172.724.221 1.215.123a2.248 2.248 0 0 1-.479 1.104c-.257.32-.552.503-.871.54-.331.037-.797-.086-1.386-.368-.602-.282-.982-.245-1.154.098l-.27.528c1.779.343 2.663.76 2.663 1.239v8.552h-.012Zm-2.013-2.7c-.54 0-.809.307-.809.896 0 .908.269 1.35.809 1.35v-2.245ZM138.859 7.35c.417 0 1.202.355 2.356 1.055l.846.515c.282.16.589.233.908.233.38 0 1.006-.356 1.89-1.092.576-.478 1.079-.711 1.497-.711.417 0 .969.196 1.619.6l1.792 1.093c1.239.736 1.865 1.68 1.865 2.81v9.006h-2.013v-9.006c0-.491-.331-.933-.981-1.338l-1.608-.97c-.441-.269-.846-.392-1.239-.392-.368 0-.92.258-1.656.761-.736.515-1.374.76-1.914.76-.565 0-1.129-.171-1.694-.515l-.674-.404c-.675-.405-1.154-.614-1.436-.614-.552 0-1.043.135-1.472.405-.442.27-.651.503-.651.724 0 .27.479.638 1.436 1.129l-1.497.687c-1.153-.417-1.718-.92-1.718-1.497v-.27c0-.393.307-.785.933-1.178l1.852-1.19c.614-.405 1.129-.601 1.559-.601Zm-3.338 13.521v-6.748c0-1.804 1.509-2.7 4.528-2.7 3.018 0 4.527.896 4.527 2.7v6.748h-2.012v-6.748c0-1.203-.834-1.804-2.515-1.804s-2.515.601-2.515 1.804v6.748h-2.013ZM156.662 11.926c0-.638-.675-1.055-2.012-1.239.135-.601.49-1.313 1.067-2.123.565-.797 1.031-1.202 1.399-1.202.294 0 .675.135 1.153.393l.7.392c.319.172.724.221 1.202.123a2.246 2.246 0 0 1-.478 1.104c-.258.32-.553.503-.872.54-.331.037-.797-.086-1.386-.368-.601-.282-.982-.245-1.153.098l-.27.528c1.779.343 2.662.76 2.662 1.24v4.956c1.006 0 1.509.516 1.509 1.534 0 .785-.171 1.472-.503 2.073-.331.602-.834.896-1.509.896-1.006 0-1.509-.294-1.509-.895v-8.05Zm2.024 7.595c.332 0 .504-.54.504-1.62 0-.416-.172-.625-.504-.625v2.245Zm7.043-1.361c0 1.202.835 1.803 2.516 1.803s2.515-.601 2.515-1.803v-3.154c-1.006 0-1.509-.454-1.509-1.35 0-1.202.675-1.803 2.012-1.803 1.006 0 1.509.307 1.509.896v5.398c0 1.804-1.509 2.7-4.527 2.7-3.019 0-4.528-.896-4.528-2.7v-6.38c-.478-.393-.761-.675-.859-.822-.098-.147-.147-.344-.147-.577 0-.22.049-.417.147-.564.098-.16.528-.601 1.313-1.338.785-.736 1.301-1.104 1.546-1.104.246 0 .884.319 1.927.97 1.374.858 2.245 1.288 2.613 1.288 1.006 0 1.509-.356 1.509-1.08 0-.307-.172-.564-.503-.81a1.798 1.798 0 0 0-1.104-.356c-.871 0-1.313-.331-1.313-.994 0-.54.429-.797 1.313-.797.736 0 1.362.27 1.865.81.503.54.761 1.264.761 2.16 0 .735-.27 1.275-.81 1.643-.54.369-1.276.553-2.209.553-1.19 0-2.196-.258-3.03-.786l-.626-.392c-.417-.258-.724-.368-.92-.344-.185.025-.405.184-.626.442-.233.27-.344.503-.344.7 0 .208.503.588 1.522 1.14v6.65h-.013Zm5.031-5.326c-.331.123-.503.393-.503.822 0 .307.172.454.503.454v-1.276ZM181.03 8.258c0-.602.503-.896 1.509-.896.638 0 1.129.307 1.485.896.356.6.528 1.202.528 1.803 0 1.203-.504 1.804-1.51 1.804v6.307c0 1.202.835 1.803 2.516 1.803s2.515-.6 2.515-1.803v-6.246c0-.638-.675-1.055-2.012-1.239.135-.601.49-1.313 1.067-2.123.565-.797 1.043-1.202 1.399-1.202.294 0 .675.135 1.153.393l.7.392c.319.172.724.221 1.202.123a2.246 2.246 0 0 1-.478 1.104c-.258.32-.553.503-.872.54-.331.037-.797-.086-1.386-.368-.601-.282-.982-.245-1.153.098l-.27.528c1.767.343 2.662.76 2.662 1.239v6.749c0 1.202.835 1.803 2.516 1.803s2.515-.601 2.515-1.803v-6.234c0-.638-.675-1.055-2.012-1.239.135-.601.49-1.313 1.067-2.123.565-.797 1.043-1.202 1.399-1.202.294 0 .687.135 1.153.393l.712.392c.319.172.724.221 1.202.123-.061.417-.22.785-.478 1.104-.258.32-.552.503-.871.54-.332.037-.798-.086-1.387-.368-.601-.282-.981-.245-1.153.098l-.27.528c1.767.343 2.662.76 2.662 1.239v6.749c0 1.803-1.509 2.699-4.527 2.699-1.595 0-2.773-.258-3.522-.76-.748.502-1.926.76-3.521.76-3.018 0-4.528-.896-4.528-2.7V8.259h-.012Zm2.012 2.699c.332 0 .503-.295.503-.896 0-.908-.171-1.35-.503-1.35v2.246ZM195.19 26.724c-1.534 0-2.307-.503-2.307-1.51 0-.281.061-.613.196-.98l.504-1.24c-.54 0-.81-.27-.81-.822 0-.54.405-.81 1.214-.81 1.166 0 1.51.687 1.031 2.049l-.417 1.055c-.258.663-.061.994.589.994.65 0 1.19-.613 1.607-1.853.479-1.497.908-2.245 1.276-2.245.172 0 .258.184.258.552 0 .479-.123 1.252-.38 2.32-.405 1.655-1.326 2.49-2.761 2.49ZM201.926 4.024c.503 0 .761.21.761.626 0 .295.172.454.503.454s.589-.073.761-.22c.159-.148.257-.381.257-.675 0-.418-.085-.712-.257-.86-.172-.147-.417-.22-.761-.22h-.503c-1.006 0-1.509-.307-1.509-.908 0-.479-.331-.724-1.006-.724 0-.601.331-.896 1.006-.896.527 0 .908.135 1.153.405.246.27.356.675.356 1.215h.503c.933 0 1.583.147 1.951.454.38.307.564.81.564 1.534 0 .6-.184 1.055-.564 1.35-.38.306-1.031.453-1.951.453-1.337 0-2.012-.417-2.012-1.264-.012-.49.245-.724.748-.724Zm.246 7.902c0-.638-.675-1.055-2.013-1.239.135-.601.491-1.313 1.068-2.123.577-.797 1.043-1.202 1.399-1.202.294 0 .687.135 1.153.393l.712.392c.319.172.711.221 1.202.123a2.36 2.36 0 0 1-.478 1.104c-.258.32-.553.503-.872.54-.331.037-.797-.086-1.386-.368-.601-.282-.982-.245-1.153.098l-.27.528c1.767.343 2.662.76 2.662 1.239v4.957c1.006 0 1.509.515 1.509 1.534 0 .785-.171 1.472-.503 2.073-.343.602-.846.896-1.509.896-1.006 0-1.509-.294-1.509-.896v-8.049h-.012Zm2.012 7.595c.331 0 .503-.54.503-1.62 0-.416-.172-.625-.503-.625v2.245Zm14.098.062 1.816-1.608c.466-.417.945-.417 1.423 0l1.804 1.608V10.06c0-1.803 1.509-2.7 4.528-2.7 3.018 0 4.527.897 4.527 2.7v10.81h-2.012v-10.81c0-1.202-.834-1.803-2.515-1.803s-2.516.6-2.516 1.803v9.914c0 .602-.331.896-1.006.896s-1.215-.184-1.632-.564l-1.889-1.681-1.89 1.68c-.429.381-.969.565-1.644.565-.675 0-1.006-.294-1.006-.896v-9.914c0-1.202-.835-1.803-2.515-1.803-1.681 0-2.516.6-2.516 1.803v5.411c1.338 0 2.012.602 2.012 1.804 0 1.203-.208 2.098-.625 2.7-.418.6-1.056.895-1.89.895-1.006 0-1.509-.294-1.509-.896v-9.914c0-1.803 1.509-2.7 4.528-2.7 3.018 0 4.527.897 4.527 2.7v9.522Zm-7.043-.062c.675 0 1.006-.748 1.006-2.257 0-.601-.331-.896-1.006-.896v3.153ZM244.466 15.006c-1.006 0-1.509-.454-1.509-1.35 0-1.202.675-1.803 2.012-1.803 1.006 0 1.509.306 1.509.896v7.202c0 .601-.331.896-1.006.896s-1.214-.184-1.632-.565l-1.889-1.68-1.89 1.68c-.417.38-.969.565-1.644.565-.675 0-1.006-.295-1.006-.896v-8.184c-.479-.393-.761-.675-.859-.822-.098-.147-.147-.344-.147-.577 0-.22.049-.417.147-.564.098-.16.356-.417.785-.798l.626-.552c.847-.736 1.362-1.104 1.571-1.104.233 0 .699.331 1.398 1.006l.516.503c.172.172.356.258.552.258.159 0 .319-.086.491-.258l.478-.503c.651-.675 1.092-1.006 1.325-1.006.221 0 .528.184.884.552l1.141 1.129c.393.368.785.43 1.178.171-.454 1.007-.884 1.51-1.301 1.51-.429 0-.773-.123-1.006-.356l-.748-.724c-.258-.245-.491-.368-.7-.368-.282 0-.601.233-.981.724-.381.49-.724.736-1.043.736-.467 0-.97-.245-1.522-.736l-.417-.356c-.282-.245-.54-.356-.785-.356-.147 0-.356.123-.651.38-.282.27-.417.503-.417.7 0 .209.503.589 1.522 1.141v8.098l1.816-1.607c.466-.417.944-.417 1.423 0l1.804 1.607v-4.589h-.025Zm0-2.172c-.331.123-.503.393-.503.822 0 .307.172.454.503.454v-1.276ZM245.129 2.7V.146h1.35v4.05c0 .306-.332.453-1.007.453h-6.036c-1.338 0-2.013-.454-2.013-1.35 0-1.496 1.006-2.257 3.019-2.257 1.583 0 3.141.552 4.687 1.656Zm-6.196.6c0 .295.171.455.503.455h5.239c-.871-.577-1.607-.957-2.209-1.117-.601-.16-1.276-.233-2.024-.233-1.006-.012-1.509.294-1.509.896ZM250.502 10.712v-.675c0-.307.209-.65.651-1.019l.65-.552c.859-.748 1.399-1.116 1.607-1.116.246 0 .724.331 1.424 1.006l.54.503c.184.172.368.258.564.258.172 0 .331-.086.503-.258l.491-.503c.675-.675 1.129-1.006 1.362-1.006.221 0 .527.184.908.552l1.165 1.129c.393.368.798.43 1.215.171-.466 1.007-.908 1.51-1.337 1.51-.442 0-.786-.123-1.031-.356l-.761-.724c-.27-.245-.515-.368-.724-.368-.282 0-.613.233-.993.724-.393.49-.749.736-1.08.736-.479 0-.994-.245-1.558-.736l-.442-.356c-.282-.245-.54-.356-.798-.356-.282 0-.503.11-.65.331a1.19 1.19 0 0 0-.221.663c0 .307.454.662 1.362 1.08l-1.276.822c-1.043-.38-1.571-.86-1.571-1.46Zm3.031 5.656c1.203 0 1.816.601 1.816 1.804 0 .601-.172 1.202-.528 1.803-.355.602-.944.896-1.791.896-1.006 0-1.509-.294-1.509-.895V14.11c0-.909.38-1.583 1.141-2.025.748-.454 1.89-.675 3.399-.675 1.509 0 2.65.22 3.398.675.749.454 1.129 1.129 1.129 2.024v6.749h-2.012V14.11c0-.6-.209-1.055-.626-1.35-.417-.294-1.055-.453-1.889-.453-.835 0-1.473.147-1.89.454-.417.294-.638.748-.638 1.35v2.257Zm0 3.154c.54 0 .81-.454.81-1.35 0-.601-.27-.896-.81-.896v2.245Z" fill="#97741E"/><path d="M49.067 16.736c-.6-.601-1.398-1.68-1.533-3.043a9.248 9.248 0 0 0-.172-1.043c-.59-2.38-2.368-4.147-4.54-4.908-.16-.049-.319-.122-.49-.196-.823-.38-1.67-1.03-2.172-1.939-1.362-2.466-4.05-3.938-7.105-3.595-1.264.135-2.515-.172-3.325-.736C28.577.491 27.276 0 25.693 0c-1.57 0-2.87.49-4.024 1.276-.822.564-2.074.871-3.326.736-3.067-.343-5.742 1.13-7.116 3.595-.601 1.092-1.669 1.804-2.65 2.135-2.442.822-4.454 3.055-4.724 5.951-.123 1.362-.933 2.442-1.534 3.043C.687 18.368 0 20.294 0 22.246v.098a7.707 7.707 0 0 0 7.706 7.607H18.76c1.055 0 1.902.871 1.902 1.926v.442c0 1.767-1.743 2-1.743 2l-8.994 1.546c-.319.05-.6.27-.6.589v1.104H42.06v-1.104c0-.32-.27-.54-.589-.589l-8.994-1.546s-1.742-.233-1.742-2v-.442c0-1.055.847-1.914 1.902-1.926h11.055a7.703 7.703 0 0 0 7.706-7.706c0-1.95-.687-3.877-2.332-5.509Z" fill="#008C3F"/><path d="M15.767 11.521c9.509-4.27 19.165-5.496 26.564-3.975-.822-.38-1.669-1.03-2.172-1.939-1.361-2.466-4.049-3.938-7.104-3.595-1.264.135-2.515-.172-3.325-.736C28.577.491 27.276 0 25.693 0c-1.57 0-2.87.49-4.024 1.276-.822.564-2.074.871-3.326.736-3.067-.343-5.742 1.13-7.116 3.595-.601 1.092-1.669 1.804-2.65 2.135-2.442.822-4.454 3.055-4.724 5.951-.123 1.362-.933 2.442-1.534 3.043C.687 18.368 0 20.294 0 22.246v.098c4.012-4.16 9.399-7.964 15.767-10.823Z" fill="url(#a)"/><path d="M24.16 17.104c8.134-3.644 16.355-5.08 23.202-4.466-.59-2.38-2.368-4.147-4.54-4.908-.16-.05-.319-.123-.49-.196-7.412-1.522-17.056-.295-26.565 3.975C9.399 14.38 4.012 18.184 0 22.343a7.707 7.707 0 0 0 6.65 7.534c4.11-4.92 10.16-9.472 17.51-12.773Z" fill="url(#b)"/><path d="M49.067 16.736c-.601-.601-1.398-1.68-1.534-3.043a9.225 9.225 0 0 0-.171-1.043c-6.847-.613-15.08.822-23.203 4.466C16.81 20.405 10.761 24.97 6.65 29.89c.344.05.7.074 1.055.074h11.056c1.055 0 1.901.871 1.901 1.926v.442c0 1.767-1.742 2-1.742 2l-8.994 1.546c-.319.05-.601.27-.601.59v1.103h32.736v-1.104c0-.319-.27-.54-.589-.589l-8.994-1.546s-1.742-.233-1.742-2v-.442c0-1.055.847-1.914 1.902-1.926h11.055a7.703 7.703 0 0 0 7.706-7.706c0-1.963-.688-3.889-2.332-5.52Z" fill="#008C3F"/><defs><linearGradient id="a" x1="32.183" y1="-1.529" x2="7.76" y2="28.631" gradientUnits="userSpaceOnUse"><stop stop-color="#76B72A"/><stop offset=".394" stop-color="#42A433"/><stop offset=".798" stop-color="#12933C"/><stop offset="1" stop-color="#008C3F"/></linearGradient><linearGradient id="b" x1="39.839" y1="-2.456" x2="10.716" y2="33.508" gradientUnits="userSpaceOnUse"><stop stop-color="#51AD32"/><stop offset=".013" stop-color="#4FAC32"/><stop offset=".293" stop-color="#2D9E38"/><stop offset=".559" stop-color="#14943C"/><stop offset=".801" stop-color="#058E3E"/><stop offset="1" stop-color="#008C3F"/></linearGradient></defs></svg>